<?xml version="1.0" encoding="iso-8859-1"?>
<!-- Generator: Adobe Illustrator 19.0.0, SVG Export Plug-In . SVG Version: 6.00 Build 0)  -->
<svg version="1.1" id="Capa_1" xmlns="http://www.w3.org/2000/svg" xmlns:xlink="http://www.w3.org/1999/xlink" x="0px" y="0px"
	 viewBox="0 0 512 512" style="enable-background:new 0 0 512 512;" xml:space="preserve">
<path style="fill:#34ABE0;" d="M512,256c0,9.676-0.533,19.237-1.588,28.63C496.18,412.536,387.709,512,256,512
	c-38.985,0-75.933-8.714-109.014-24.315c-32.81-15.464-61.816-37.689-85.201-64.899c-0.408-0.47-0.805-0.93-1.202-1.4
	c-12.34-14.555-23.071-30.521-31.932-47.606c0-0.01-0.01-0.01-0.01-0.021C17.69,352.684,9.592,329.885,4.859,305.883
	c-1.609-8.15-2.832-16.436-3.636-24.848v-0.01C0.408,272.792,0,264.453,0,256c0-1.055,0.01-2.1,0.021-3.156
	c0.104-8.997,0.679-17.889,1.703-26.645c7.356-63.54,37.992-119.986,83.153-160.59c26.425-23.782,57.825-42.13,92.453-53.29
	C202.115,4.315,228.551,0,256,0c26.258,0,51.597,3.95,75.452,11.295c16.687,5.141,32.653,11.943,47.689,20.219
	c13.96,7.67,27.126,16.603,39.34,26.655c26.645,21.901,48.776,49.079,64.815,79.935c7.868,15.141,14.263,31.159,19.017,47.877
	c4.744,16.75,7.837,34.21,9.07,52.172C511.791,244.046,512,250.002,512,256z"/>
<path style="fill:#E8DBC4;" d="M510.412,284.63c-7.847,70.562-44.387,132.451-97.667,173.777l-0.01,0.01
	c-8.411,6.531-17.241,12.539-26.446,17.993c-7.189,4.253-14.597,8.171-22.204,11.724c-23.552,10.982-49.048,18.484-75.828,21.849
	h-0.01C277.682,511.31,266.93,512,256,512c-12.361,0-24.524-0.878-36.415-2.581c-6.646-0.94-13.218-2.142-19.686-3.594
	c-55.338-12.361-103.905-42.642-139.316-84.438c2.811-4.033,6.311-7.68,10.491-10.762l80.823-59.685
	c12.079-8.923,18.463-22.685,18.463-36.634c0-9.383-2.894-18.86-8.892-26.99c-14.921-20.208-43.405-24.492-63.613-9.571
	c-37.867,27.972-88.451-11.828-70.217-55.223c8.537-20.323,19.905-39.852,34.158-58.034
	c86.006-109.746,244.684-128.972,354.429-42.966C469.608,163.359,501.572,222.396,510.412,284.63z"/>
<path style="fill:#EF4152;" d="M321.369,142.148c0,10.271-3.417,19.759-9.164,27.376c-8.296,10.982-21.462,18.077-36.289,18.077
	c-25.098,0-45.443-20.355-45.443-45.453c0-16.833,9.153-31.535,22.747-39.393c6.677-3.856,14.43-6.06,22.695-6.06
	C301.025,96.695,321.369,117.049,321.369,142.148z"/>
<path style="fill:#FF525D;" d="M321.369,142.148c0,10.271-3.417,19.759-9.164,27.376c-6.677,3.856-14.43,6.06-22.706,6.06
	c-25.098,0-45.443-20.355-45.443-45.453c0-10.271,3.417-19.759,9.164-27.376c6.677-3.856,14.43-6.06,22.695-6.06
	C301.025,96.695,321.369,117.049,321.369,142.148z"/>
<circle style="fill:#EDBB4C;" cx="384.063" cy="211.111" r="45.451"/>
<circle style="fill:#279FC9;" cx="429.516" cy="327.084" r="45.451"/>
<path style="fill:#41B787;" d="M415.41,443.058c0,5.381-0.94,10.553-2.664,15.35l-0.01,0.01
	c-8.411,6.531-17.241,12.539-26.446,17.993c-7.189,4.253-14.597,8.171-22.204,11.724c-22.329-2.884-39.581-21.964-39.581-45.077
	c0-25.098,20.355-45.443,45.453-45.443C395.055,397.615,415.41,417.959,415.41,443.058z"/>
<path style="fill:#F9EED7;" d="M290.022,497.392c0,4.368-0.616,8.589-1.766,12.591C277.692,511.31,266.93,512,256,512
	c-19.268,0-38.045-2.132-56.101-6.175c-0.512-2.738-0.784-5.548-0.784-8.432c0-25.098,20.355-45.443,45.453-45.443
	S290.022,472.294,290.022,497.392z"/>
<path style="fill:#FFD15C;" d="M429.512,211.107c0,10.271-3.417,19.759-9.164,27.376c-6.677,3.856-14.43,6.06-22.706,6.06
	c-25.098,0-45.443-20.355-45.443-45.453c0-10.271,3.417-19.759,9.164-27.376c6.677-3.856,14.43-6.06,22.695-6.06
	C409.167,165.654,429.512,186.009,429.512,211.107z"/>
<path style="fill:#34ABE0;" d="M474.961,327.084c0,10.271-3.417,19.759-9.164,27.376c-6.677,3.856-14.43,6.06-22.706,6.06
	c-25.098,0-45.443-20.355-45.443-45.453c0-10.271,3.417-19.759,9.164-27.376c6.677-3.856,14.43-6.06,22.695-6.06
	C454.617,281.631,474.961,301.986,474.961,327.084z"/>
<path style="fill:#4BC999;" d="M415.41,443.058c0,5.392-0.94,10.564-2.675,15.36c-8.411,6.531-17.241,12.539-26.446,17.993
	c-0.909,0.052-1.829,0.084-2.748,0.084c-25.098,0-45.443-20.355-45.443-45.453c0-10.271,3.417-19.759,9.164-27.376
	c6.677-3.856,14.43-6.06,22.695-6.06C395.065,397.605,415.41,417.959,415.41,443.058z"/>
<g>
	<path style="fill:#FCF8F2;" d="M290.022,497.392c0,4.368-0.616,8.589-1.776,12.591C277.682,511.31,266.93,512,256,512
		c-12.361,0-24.524-0.878-36.415-2.581c-4.357-6.98-6.875-15.214-6.875-24.043c0-10.271,3.417-19.759,9.164-27.376
		c6.677-3.856,14.43-6.06,22.695-6.06C269.678,451.939,290.022,472.294,290.022,497.392z"/>
	<path style="fill:#FCF8F2;" d="M117.705,235.958c-14.111,8.386-30.637,11.223-45.687,8.715
		c-62.393-10.4-55.412-101.768-25.094-135.19c4.845-5.369,8.475-12.205,11.085-19.852c0.002-0.014,0.002-0.014,0.002-0.014
		c0.14-0.422,0.28-0.843,0.42-1.265c0.467-1.466,0.911-2.964,1.304-4.485c1.322-4.927,2.301-10.132,2.98-15.458
		c1.117-8.677,1.483-17.678,1.383-26.395c-0.187-16.411,20.765-23.442,30.445-10.189c46.865,64.167,60.805,113.351,56.997,148.275
		l-0.004,0.027C148.59,207.22,134.948,225.728,117.705,235.958z"/>
</g>
<path style="fill:#F9EED7;" d="M117.705,235.958c-14.111,8.386-30.637,11.223-45.687,8.715
	c-62.393-10.4-55.412-101.768-25.094-135.19c4.845-5.369,8.475-12.205,11.085-19.852C51.103,114.617,29.815,213.448,117.705,235.958
	z"/>
<path style="fill:#FFD15C;" d="M151.534,180.092c4.382-40.138-14.696-99.123-80.269-178.053c-3.578-4.307-10.578-1.275-9.846,4.276
	c2.156,16.347,4.124,40.457,1.244,62.437c-0.195,1.49-0.414,2.971-0.655,4.438c-0.041,0.248-0.082,0.494-0.124,0.741
	c-0.258,1.513-0.539,3.012-0.85,4.493c-0.033,0.157-0.067,0.313-0.1,0.47c-0.317,1.48-0.664,2.939-1.038,4.378
	c-0.051,0.197-0.103,0.395-0.156,0.591c-0.401,1.506-0.831,2.993-1.299,4.446c-0.004,0.014-0.008,0.027-0.013,0.041
	c0,0,0,0.002,0,0.003c-2.642,8.169-6.389,15.459-11.506,21.13l0,0c3.736,9.688,3.739,20.449-0.149,30.076
	c-1.045,2.586-2.182,5.195-3.422,7.806c0,0,32.09-11.142,34.652-41.24c0,0,24.672,42.59,11.491,84.953
	c0,0,31.508-31.393,18.322-87.935C107.817,103.142,145.527,126.651,151.534,180.092z"/>
<path style="fill:#5C5E70;" d="M133.703,251.41H42.797c-8.944,0-16.196-7.252-16.196-16.196l0,0c0-8.944,7.252-16.196,16.196-16.196
	h90.906c8.944,0,16.196,7.252,16.196,16.196l0,0C149.899,244.159,142.647,251.41,133.703,251.41z"/>
<path style="fill:#494B5B;" d="M52.723,235.214L52.723,235.214c0-8.944,7.252-16.196,16.196-16.196H42.797
	c-8.944,0-16.196,7.252-16.196,16.196l0,0c0,8.944,7.252,16.196,16.196,16.196h26.122C59.975,251.41,52.723,244.159,52.723,235.214z
	"/>
<path style="fill:#5C5E70;" d="M133.703,283.802H42.797c-8.944,0-16.196-7.252-16.196-16.196l0,0
	c0-8.944,7.252-16.196,16.196-16.196h90.906c8.944,0,16.196,7.252,16.196,16.196l0,0
	C149.899,276.551,142.647,283.802,133.703,283.802z"/>
<path style="fill:#494B5B;" d="M52.723,267.606L52.723,267.606c0-8.944,7.252-16.196,16.196-16.196H42.797
	c-8.944,0-16.196,7.252-16.196,16.196l0,0c0,8.944,7.252,16.196,16.196,16.196h26.122C59.975,283.802,52.723,276.551,52.723,267.606
	z"/>
<path style="fill:#C69A6A;" d="M146.986,487.685c-33.374-15.726-62.809-38.452-86.403-66.299
	c-12.34-14.566-23.082-30.532-31.943-47.626c1.735-23.458,4.66-46.864,8.777-70.102c1.17-6.625,2.445-13.249,3.814-19.853h94.041
	c1.369,6.604,2.644,13.228,3.814,19.853C149.849,364.471,152.492,426.35,146.986,487.685z"/>
<path style="fill:#B58657;" d="M139.086,303.658H98.085c-14.952,0-27.627,11.024-29.686,25.83
	c-4.295,30.96-6.499,62.13-6.614,93.299c-0.408-0.47-0.805-0.93-1.202-1.4c-12.34-14.555-23.071-30.521-31.932-47.606
	c1.735-23.468,4.66-46.874,8.777-70.123h-0.01c0.094-0.543,0.209-1.087,0.282-1.63c0.199-1.421,0.502-2.832,0.784-4.232
	c0.313-1.536,0.575-3.062,0.867-4.598c0.606-3.135,1.233-6.269,1.881-9.394h94.041C136.641,290.408,137.916,297.033,139.086,303.658
	z"/>
<g>
</g>
<g>
</g>
<g>
</g>
<g>
</g>
<g>
</g>
<g>
</g>
<g>
</g>
<g>
</g>
<g>
</g>
<g>
</g>
<g>
</g>
<g>
</g>
<g>
</g>
<g>
</g>
<g>
</g>
</svg>
